<svg xmlns="http://www.w3.org/2000/svg" width="512" height="512" viewBox="0 0 256 256"><defs><radialGradient id="sky"><stop stop-color="#244756"/><stop offset="1" stop-color="#0b1824"/></radialGradient><linearGradient id="body" x2=".4" y2="1"><stop stop-color="#b89a78"/><stop offset="1" stop-color="#43515b"/></linearGradient></defs><rect width="256" height="256" rx="12" fill="url(#sky)"/><path d="M12 92 70 42 93 65 152 15 242 80M12 103 75 71 104 84 158 42 246 94" fill="none" stroke="#618988" opacity=".4"/><rect x="8" y="8" width="240" height="240" rx="8" fill="none" stroke="#b1a486"/><g transform="translate(12,-1) scale(.9)" stroke="#101e29" stroke-width="3"><path d="M22 227 22 155Q20 109 77 100L134 108 171 133 191 170 209 219 192 249 178 236 183 215 165 186 157 233 134 233 133 181 76 187 72 234 49 234 45 180 39 227Z" fill="url(#body)"/><path d="m120 145 9 16-9 18-9-18z" fill="#a2e1e1" stroke="#d8f5e6"/></g><rect x="9" y="219" width="238" height="29" fill="#091621" opacity=".95"/><text x="128" y="233" text-anchor="middle" fill="#ede2c7" font-size="13" font-family="sans-serif">冰脊長毛巨獸</text><text x="128" y="244" text-anchor="middle" fill="#92b8bb" font-size="7" font-family="sans-serif">CONCEPT · TESTABLE V1</text></svg>